<?xml version="1.0" standalone="no"?>
<!DOCTYPE svg PUBLIC "-//W3C//DTD SVG 1.1//EN" "http://www.w3.org/Graphics/SVG/1.1/DTD/svg11.dtd" >
<svg xmlns="http://www.w3.org/2000/svg">
<metadata></metadata>
<defs>
<font id="montserrat_subrayadabold" horiz-adv-x="745" >
<font-face units-per-em="1000" ascent="800" descent="-200" />
<missing-glyph horiz-adv-x="264" />
<glyph unicode="&#xd;" horiz-adv-x="333" />
<glyph unicode=" " horiz-adv-x="264" d="M264 43v-43h-264v43h264z" />
<glyph unicode="!" horiz-adv-x="315" d="M69 699h177v-124l-30 -330h-118l-29 330v124zM315 43v-43h-315v43h99q-30 25 -30 64.5t25.5 65t62.5 25.5t62.5 -25.5t25.5 -64.5t-31 -65h101z" />
<glyph unicode="&#x22;" horiz-adv-x="433" d="M69 431v268h119v-228h57v228h119v-268h-115v-388h185v-43h-434v43h185v388h-116z" />
<glyph unicode="#" horiz-adv-x="747" d="M748 43v-43h-828v43h201l19 109h-96l27 138h93l21 125h-107l27 138h103l27 162h151l-27 -162h90l27 162h152l-29 -162h105l-27 -138h-101l-21 -125h115l-27 -138h-111l-19 -109h235zM427 415h-91l-22 -125h91zM291 152l-19 -109h91l19 109h-91z" />
<glyph unicode="$" horiz-adv-x="635" d="M635 43v-43h-259v-69h-106v69h-270v43h148q-62 30 -112 76l93 113q78 -68 141 -87v149q-105 27 -154 72.5t-49 131t56 141t147 66.5v64h106v-66q100 -14 199 -83l-82 -118q-63 45 -117 60v-144q108 -28 159.5 -75t51.5 -130q0 -113 -89 -170h137zM427 202q0 21 -11 35 t-40 26v-123q51 16 51 62zM270 566q-43 -15 -43 -55t43 -61v116z" />
<glyph unicode="%" horiz-adv-x="819" d="M491 43q-33 38 -33 93t42 96t105.5 41t105.5 -41t42 -96t-32 -93h118v-43h-839v43h101l471 656h171l-470 -656h218zM317 441.5q-42 -40.5 -105.5 -40.5t-105.5 41t-42 99.5t42 99.5t105.5 41t105.5 -41t42 -100t-42 -99.5zM211 492q18 0 30 13.5t12 35.5t-12 36.5 t-29.5 14.5t-29.5 -14.5t-12 -36.5t11.5 -35.5t29.5 -13.5zM605 83q18 0 30 13.5t12 35.5t-12 36.5t-29.5 14.5t-29.5 -14.5t-12 -36.5t11.5 -35.5t29.5 -13.5z" />
<glyph unicode="&#x26;" horiz-adv-x="700" d="M700 43v-43h-700v43h126q-79 55 -79 153q0 118 147 202q-64 68 -64 142t58 124.5t159 50.5q75 0 134.5 -43.5t59.5 -121.5q0 -98 -143 -182q45 -57 80 -95q25 40 36 91l113 -74q-23 -63 -56 -117l86 -85l-48 -45h91zM218 147.5q26 -20.5 67.5 -20.5t96.5 53 q-64 68 -109 121q-35 -17 -58 -43.5t-23 -58t26 -52zM298.5 581.5q-17.5 -15.5 -17.5 -42t40 -76.5q75 40 75 75q0 29 -18 44t-40 15t-39.5 -15.5zM471 83q-34 -28 -63 -40h102z" />
<glyph unicode="'" horiz-adv-x="261" d="M71 431v268h119v-268h-36v-388h107v-43h-261v43h107v388h-36z" />
<glyph unicode="(" horiz-adv-x="362" d="M422 43v-43h-422v43h146q-91 152 -91 335q0 216 120 379h162q-65 -89 -99 -177.5t-34 -201.5q0 -178 103 -335h115z" />
<glyph unicode=")" horiz-adv-x="362" d="M-60 0v43h115q103 160 103 335q0 113 -34 201.5t-99 177.5h162q120 -163 120 -379q0 -182 -92 -335h147v-43h-422z" />
<glyph unicode="*" horiz-adv-x="456" d="M456 43v-43h-456v43h204v320h-32l6 84l-71 -49l-51 91l84 42l-85 42l52 89l71 -47l-6 84h112l-6 -84l71 47l52 -89l-85 -42l84 -42l-51 -91l-71 49l6 -84h-33v-320h205z" />
<glyph unicode="+" horiz-adv-x="584" d="M223 109v180h-175v123h175v180h138v-180h175v-123h-175v-180h-46v-66h269v-43h-584v43h268v66h-45z" />
<glyph unicode="," horiz-adv-x="297" d="M0 0v43h80q-22 24 -22 59t27 60.5t65 25.5t65.5 -25t27.5 -58t-18 -62h72v-43h-97l-46 -79h-99l27 79h-82z" />
<glyph unicode="-" horiz-adv-x="490" d="M67 234v133h356v-133h-154v-191h221v-43h-490v43h222v191h-155z" />
<glyph unicode="." horiz-adv-x="288" d="M0 0v43h76q-20 23 -20 58.5t25.5 61t62.5 25.5t62.5 -25.5t25.5 -60.5t-21 -59h77v-43h-288z" />
<glyph unicode="/" horiz-adv-x="614" d="M614 43v-43h-654v43h138l348 762h142l-349 -762h375z" />
<glyph unicode="0" horiz-adv-x="690" d="M690 43v-43h-690v43h176q-120 88 -120 310q0 165 72 263.5t217 98.5t217 -98.5t72 -263.5q0 -222 -120 -310h176zM209 353q0 -105 33 -169t103 -64t103 64t33 169t-33 169t-103 64t-103 -64t-33 -169z" />
<glyph unicode="1" horiz-adv-x="403" d="M403 43v-43h-403v43h164v523h-133v133h283v-656h89z" />
<glyph unicode="2" horiz-adv-x="605" d="M615 43v-43h-625v43h68v73l205 210q62 63 88.5 100.5t26.5 72.5t-23 58.5t-59 23.5q-66 0 -125 -94l-125 74q49 76 107.5 115t149 39t159 -57.5t68.5 -156.5q0 -54 -27.5 -103.5t-101.5 -126.5l-126 -131h276v-97h64z" />
<glyph unicode="3" horiz-adv-x="591" d="M591 43v-43h-601v43h129q-45 19 -83 46l64 124q99 -70 177 -70q47 0 77.5 23t30.5 66.5t-35 69t-97 25.5q-33 0 -93 -19v115l134 143h-219v133h428v-108l-143 -148q84 -14 130 -70.5t46 -130.5q0 -135 -112 -199h167z" />
<glyph unicode="4" horiz-adv-x="588" d="M588 43v-43h-588v43h317v124h-281v119l249 413h170l-237 -397h99v122h150v-122h79v-135h-79v-124h121z" />
<glyph unicode="5" horiz-adv-x="596" d="M596 43v-43h-596v43h111q-37 25 -62 54l82 114q9 -9 24 -22t55 -34.5t80 -21.5t71 24t31 71t-33.5 72.5t-86.5 25.5t-123 -38l-65 70v341h422v-135h-276v-117q31 9 71 9q101 0 174 -61t73 -165q0 -58 -25.5 -106.5t-70.5 -80.5h144z" />
<glyph unicode="6" horiz-adv-x="630" d="M630 43v-43h-630v43h166q-110 88 -110 305q0 96 23.5 168.5t64.5 114.5q80 84 198 84q49 0 93.5 -14.5t68.5 -29.5t53 -38l-74 -110q-6 6 -17.5 16t-45.5 26t-66 16q-65 0 -100.5 -43.5t-43.5 -118.5q65 42 138 42q98 0 163.5 -64t65.5 -176.5t-86 -177.5h139z M255.5 301.5q-31.5 -27.5 -31.5 -71.5t30 -75.5t75 -31.5t75 28t30 72.5t-27 75t-73.5 30.5t-78 -27.5z" />
<glyph unicode="7" horiz-adv-x="579" d="M579 43v-43h-579v43h119l250 522h-176v-90h-146v224h505v-118l-262 -538h289z" />
<glyph unicode="8" horiz-adv-x="642" d="M642 43v-43h-642v43h143q-89 62 -89 169t87 174q-63 59 -63 139t69.5 135t173.5 55t173 -55t69 -135.5t-62 -138.5q87 -67 87 -174t-89 -169h143zM321 122q41 0 76 23.5t35 68.5t-34 69t-77 24t-77 -24t-34 -69t35 -68.5t76 -23.5zM321 427q38 0 66.5 24t28.5 59.5 t-28 59.5t-67 24t-67 -24t-28 -59.5t28.5 -59.5t66.5 -24z" />
<glyph unicode="9" horiz-adv-x="629" d="M629 43v-43h-629v43h113q-25 17 -41 30l78 110q7 -6 18.5 -15.5t44.5 -25.5t62 -16q65 0 100.5 43.5t43.5 118.5q-64 -43 -138 -43q-98 0 -163.5 64.5t-65.5 170.5t70.5 170.5t177.5 64.5q74 0 128.5 -28.5t85.5 -79.5q59 -99 59 -248q0 -224 -124 -316h180zM374 405 q31 27 31 71t-30 76t-75 32t-73.5 -28.5t-28.5 -72.5t26 -74.5t72.5 -30.5t77.5 27z" />
<glyph unicode=":" horiz-adv-x="310" d="M0 0v43h87q-20 23 -20 58.5t25.5 61t62.5 25.5t62.5 -25.5t25.5 -60.5t-21 -59h88v-43h-310zM67 363q0 37 25.5 62.5t62.5 25.5t62.5 -25.5t25.5 -62.5t-25.5 -62.5t-62.5 -25.5t-62.5 25.5t-25.5 62.5z" />
<glyph unicode=";" horiz-adv-x="315" d="M0 0v43h88q-21 24 -21 58.5t27 60t65.5 25.5t66 -25t27.5 -63q0 -22 -17 -56h79v-43h-104l-49 -81h-98l28 81h-92zM67 363q0 37 25.5 62.5t62.5 25.5t62.5 -25.5t25.5 -62.5t-25.5 -62.5t-62.5 -25.5t-62.5 25.5t-25.5 62.5z" />
<glyph unicode="&#x3c;" horiz-adv-x="601" d="M352 43h249v-43h-601v43h305v158l-264 125v137l486 229v-147l-321 -148l321 -152v-148l-175 82v-136z" />
<glyph unicode="=" horiz-adv-x="587" d="M50 289h223v126h-223v123h487v-123h-217v-126h217v-123h-217v-123h267v-43h-587v43h273v123h-223v123z" />
<glyph unicode="&#x3e;" horiz-adv-x="601" d="M601 43v-43h-601v43h249v136l-175 -82v148l321 152l-321 148v147l486 -229v-137l-264 -125v-158h305z" />
<glyph unicode="?" horiz-adv-x="524" d="M331 235h-152v49q0 68 57 127q8 8 28 27t28 28q25 28 25 56.5t-15 44.5t-42.5 16t-47 -24.5t-19.5 -55.5q0 -6 1 -12h-142v12q0 94 59.5 153t156 59t151.5 -48.5t55 -133.5q0 -42 -22.5 -82.5t-49.5 -66.5q-71 -68 -71 -118v-31zM524 43v-43h-524v43h189q-20 23 -20 58.5 t25.5 61t62.5 25.5t62.5 -25.5t25.5 -60.5t-21 -59h200z" />
<glyph unicode="@" horiz-adv-x="891" d="M891 43v-43h-891v43h154q-102 108 -102 272t118.5 282.5t285.5 118.5t279 -114t112 -284q0 -110 -45.5 -176.5t-119.5 -66.5q-38 0 -69.5 23t-43.5 58q-55 -71 -139.5 -71t-147 64t-62.5 162t56.5 163.5t148.5 65.5q31 0 59 -13t40 -27l13 -13v45h125v-318q0 -50 30 -50 q27 0 47.5 43t20.5 108q0 141 -81 233.5t-217 92.5t-229 -97t-93 -234q0 -86 37.5 -156t102.5 -111h611zM511.5 398q-26.5 33 -69.5 33t-68.5 -33t-25.5 -81.5t25.5 -84.5t69.5 -36t69.5 34.5t25.5 84.5t-26.5 83z" />
<glyph unicode="A" d="M847 43v-43h-263l-65 151h-293l-65 -151h-263v43h115l284 656h151l283 -656h116zM373 491l-88 -203h175z" />
<glyph unicode="B" horiz-adv-x="706" d="M706 43v-43h-717v43h97v656h272q71 0 122.5 -17t77.5 -46q47 -54 47 -122q0 -82 -53 -122q-18 -14 -25 -17.5t-25 -11.5q65 -14 103.5 -58.5t38.5 -110.5q0 -99 -78 -151h140zM242 132h107q67 0 100.5 16.5t33.5 65t-35.5 64t-113.5 15.5h-92v-161zM242 416h74 q65 0 96.5 14t31.5 60.5t-29 61.5t-98 15h-75v-151z" />
<glyph unicode="C" horiz-adv-x="736" d="M736 43v-43h-736v43h215q-80 47 -125.5 127.5t-45.5 182.5q0 154 106.5 258t260.5 104q172 0 288 -131l-97 -110q-74 92 -184 92q-88 0 -150.5 -57.5t-62.5 -155t59 -156.5t143 -59q115 0 188 91l100 -103q-44 -51 -99 -83h140z" />
<glyph unicode="D" horiz-adv-x="782" d="M782 43v-43h-793v43h97v656h247q187 0 287 -91.5t100 -257.5q0 -224 -174 -307h236zM505.5 192q57.5 54 57.5 157t-57.5 158.5t-176.5 55.5h-87v-425h99q107 0 164.5 54z" />
<glyph unicode="E" horiz-adv-x="654" d="M86 43v656h504v-139h-348v-144h313v-133h-313v-145h359v-95h97v-43h-709v43h97z" />
<glyph unicode="F" horiz-adv-x="612" d="M612 43v-43h-612v43h86v656h480v-137h-324v-151h308v-137h-308v-231h370z" />
<glyph unicode="G" horiz-adv-x="750" d="M750 43v-43h-750v43h217q-80 47 -125.5 127.5t-45.5 182.5q0 154 106.5 258t257 104t261.5 -99l-81 -117q-47 41 -86.5 56.5t-85.5 15.5q-89 0 -150 -60.5t-61 -159.5t58.5 -158.5t139.5 -59.5t135 31v192h157v-248q-34 -38 -81 -65h134z" />
<glyph unicode="H" horiz-adv-x="762" d="M762 43v-43h-242v275h-278v-275h-242v43h86v656h156v-292h278v292h156v-656h86z" />
<glyph unicode="I" horiz-adv-x="328" d="M328 43v-43h-328v43h86v656h156v-656h86z" />
<glyph unicode="J" horiz-adv-x="556" d="M556 43v-43h-556v43h119q-49 22 -93 68l81 115q63 -68 132 -68q33 0 56.5 26t23.5 76v305h-207v134h364v-436q0 -159 -108 -220h188z" />
<glyph unicode="K" horiz-adv-x="710" d="M421 390l247 -347h83v-43h-234l-205 276l-70 -78v-198h-242v43h86v656h156v-287l264 287h193z" />
<glyph unicode="L" horiz-adv-x="568" d="M637 43v-43h-648v43h97v656h156v-560h298v-96h97z" />
<glyph unicode="M" horiz-adv-x="954" d="M712 440l-189 -382h-93l-188 382v-440h-253v43h97v656h211l180 -384l181 384h210v-656h97v-43h-253v440z" />
<glyph unicode="N" horiz-adv-x="817" d="M86 43v656h146l343 -450v450h156v-656h97v-43h-253l-333 438v-438h-253v43h97z" />
<glyph unicode="O" horiz-adv-x="826" d="M826 43v-43h-826v43h223q-82 47 -129.5 129t-47.5 182q0 154 106 257.5t261 103.5t261 -103.5t106 -257.5q0 -100 -48 -182t-129 -129h223zM561 513q-60 66 -147.5 66t-147.5 -66t-60 -159.5t60 -159t147.5 -65.5t147.5 65.5t60 159t-60 159.5z" />
<glyph unicode="P" horiz-adv-x="677" d="M677 43v-43h-688v43h97v656h247q161 0 234.5 -62.5t73.5 -192t-75.5 -189.5t-230.5 -60h-93v-152h435zM453 361.5q28 31.5 28 92t-36.5 86t-113.5 25.5h-89v-235h105q78 0 106 31.5z" />
<glyph unicode="Q" horiz-adv-x="827" d="M780 354q0 -100 -47.5 -182t-129.5 -129h224v-43h-336v-117h-156v117h-335v43h223q-82 47 -129.5 129t-47.5 182q0 154 106 257.5t261 103.5t261 -103.5t106 -257.5zM335 242h156v-97q58 25 94 81.5t36 126.5q0 94 -60 160t-147.5 66t-147.5 -66t-60 -160 q0 -70 35.5 -126.5t93.5 -81.5v97z" />
<glyph unicode="R" horiz-adv-x="727" d="M86 43v656h265q163 0 232.5 -55t69.5 -177q0 -168 -133 -217l146 -207h94v-43h-255l-155 223h-108v-223h-253v43h97zM465 384q29 26 29 82.5t-30 77.5t-105 21h-117v-207h114q80 0 109 26z" />
<glyph unicode="S" horiz-adv-x="638" d="M638 43v-43h-638v43h136q-55 28 -100 72l93 114q113 -99 209 -99q43 0 67.5 18.5t24.5 50t-26 50t-103 37.5q-122 29 -178.5 75.5t-56.5 146t71.5 153.5t178.5 54q70 0 140 -24t122 -68l-79 -114q-91 69 -188 69q-39 0 -61.5 -18.5t-22.5 -49t27.5 -48.5t127 -42.5 t154.5 -73.5t55 -136q0 -108 -81 -167h128z" />
<glyph unicode="T" horiz-adv-x="608" d="M608 43v-43h-608v43h226v521h-198v135h552v-135h-198v-521h226z" />
<glyph unicode="U" horiz-adv-x="751" d="M751 43v-43h-751v43h199q-123 82 -123 265v391h156v-386q0 -84 39 -132.5t105 -48.5t104.5 48.5t38.5 132.5v386h156v-391q0 -183 -122 -265h198z" />
<glyph unicode="V" horiz-adv-x="688" d="M688 43v-43h-688v43h260l-263 656h169l178 -445l178 445h169l-264 -656h261z" />
<glyph unicode="W" horiz-adv-x="1019" d="M1019 43v-43h-357l-153 486l-152 -486h-357v43h226l-229 656h169l138 -402l124 402h163l123 -402l139 402h169l-229 -656h226z" />
<glyph unicode="X" horiz-adv-x="695" d="M754 43v-43h-259l-149 230l-148 -230h-256v43h96l207 315l-219 341h187l133 -207l133 207h188l-218 -337l208 -319h97z" />
<glyph unicode="Y" horiz-adv-x="618" d="M618 43v-43h-618v43h231v233l-242 423h169l151 -260l151 260h169l-242 -423v-233h231z" />
<glyph unicode="Z" horiz-adv-x="681" d="M728 43v-43h-779v43h97v64l366 457h-354v135h567v-108l-365 -455h371v-93h97z" />
<glyph unicode="[" horiz-adv-x="374" d="M-9 0v43h86v714h257v-113h-129v-514h129v-87h77v-43h-420z" />
<glyph unicode="\" horiz-adv-x="572" d="M632 43v-43h-632v43h371l-343 714h151l343 -714h110z" />
<glyph unicode="]" horiz-adv-x="374" d="M383 43v-43h-420v43h77v87h129v514h-129v113h257v-714h86z" />
<glyph unicode="^" horiz-adv-x="483" d="M165 771h-143l137 177h165l137 -177h-143l-77 85z" />
<glyph unicode="_" horiz-adv-x="720" d="M0 0v43h720v-43h-336v-45h269v-87h-586v87h270v45h-337z" />
<glyph unicode="`" horiz-adv-x="382" d="M332 769h-143l-139 112l154 66z" />
<glyph unicode="a" d="M847 43v-43h-263l-65 151h-293l-65 -151h-263v43h115l284 656h151l283 -656h116zM373 491l-88 -203h175z" />
<glyph unicode="b" horiz-adv-x="706" d="M706 43v-43h-717v43h97v656h272q71 0 122.5 -17t77.5 -46q47 -54 47 -122q0 -82 -53 -122q-18 -14 -25 -17.5t-25 -11.5q65 -14 103.5 -58.5t38.5 -110.5q0 -99 -78 -151h140zM242 132h107q67 0 100.5 16.5t33.5 65t-35.5 64t-113.5 15.5h-92v-161zM242 416h74 q65 0 96.5 14t31.5 60.5t-29 61.5t-98 15h-75v-151z" />
<glyph unicode="c" horiz-adv-x="736" d="M736 43v-43h-736v43h215q-80 47 -125.5 127.5t-45.5 182.5q0 154 106.5 258t260.5 104q172 0 288 -131l-97 -110q-74 92 -184 92q-88 0 -150.5 -57.5t-62.5 -155t59 -156.5t143 -59q115 0 188 91l100 -103q-44 -51 -99 -83h140z" />
<glyph unicode="d" horiz-adv-x="782" d="M782 43v-43h-793v43h97v656h247q187 0 287 -91.5t100 -257.5q0 -224 -174 -307h236zM505.5 192q57.5 54 57.5 157t-57.5 158.5t-176.5 55.5h-87v-425h99q107 0 164.5 54z" />
<glyph unicode="e" horiz-adv-x="654" d="M86 43v656h504v-139h-348v-144h313v-133h-313v-145h359v-95h97v-43h-709v43h97z" />
<glyph unicode="f" horiz-adv-x="612" d="M612 43v-43h-612v43h86v656h480v-137h-324v-151h308v-137h-308v-231h370z" />
<glyph unicode="g" horiz-adv-x="750" d="M750 43v-43h-750v43h217q-80 47 -125.5 127.5t-45.5 182.5q0 154 106.5 258t257 104t261.5 -99l-81 -117q-47 41 -86.5 56.5t-85.5 15.5q-89 0 -150 -60.5t-61 -159.5t58.5 -158.5t139.5 -59.5t135 31v192h157v-248q-34 -38 -81 -65h134z" />
<glyph unicode="h" horiz-adv-x="762" d="M762 43v-43h-242v275h-278v-275h-242v43h86v656h156v-292h278v292h156v-656h86z" />
<glyph unicode="i" horiz-adv-x="328" d="M328 43v-43h-328v43h86v656h156v-656h86z" />
<glyph unicode="j" horiz-adv-x="556" d="M556 43v-43h-556v43h119q-49 22 -93 68l81 115q63 -68 132 -68q33 0 56.5 26t23.5 76v305h-207v134h364v-436q0 -159 -108 -220h188z" />
<glyph unicode="k" horiz-adv-x="710" d="M421 390l247 -347h83v-43h-234l-205 276l-70 -78v-198h-242v43h86v656h156v-287l264 287h193z" />
<glyph unicode="l" horiz-adv-x="568" d="M637 43v-43h-648v43h97v656h156v-560h298v-96h97z" />
<glyph unicode="m" horiz-adv-x="954" d="M712 440l-189 -382h-93l-188 382v-440h-253v43h97v656h211l180 -384l181 384h210v-656h97v-43h-253v440z" />
<glyph unicode="n" horiz-adv-x="817" d="M86 43v656h146l343 -450v450h156v-656h97v-43h-253l-333 438v-438h-253v43h97z" />
<glyph unicode="o" horiz-adv-x="826" d="M826 43v-43h-826v43h223q-82 47 -129.5 129t-47.5 182q0 154 106 257.5t261 103.5t261 -103.5t106 -257.5q0 -100 -48 -182t-129 -129h223zM561 513q-60 66 -147.5 66t-147.5 -66t-60 -159.5t60 -159t147.5 -65.5t147.5 65.5t60 159t-60 159.5z" />
<glyph unicode="p" horiz-adv-x="677" d="M677 43v-43h-688v43h97v656h247q161 0 234.5 -62.5t73.5 -192t-75.5 -189.5t-230.5 -60h-93v-152h435zM453 361.5q28 31.5 28 92t-36.5 86t-113.5 25.5h-89v-235h105q78 0 106 31.5z" />
<glyph unicode="q" horiz-adv-x="827" d="M780 354q0 -100 -47.5 -182t-129.5 -129h224v-43h-336v-117h-156v117h-335v43h223q-82 47 -129.5 129t-47.5 182q0 154 106 257.5t261 103.5t261 -103.5t106 -257.5zM335 242h156v-97q58 25 94 81.5t36 126.5q0 94 -60 160t-147.5 66t-147.5 -66t-60 -160 q0 -70 35.5 -126.5t93.5 -81.5v97z" />
<glyph unicode="r" horiz-adv-x="727" d="M86 43v656h265q163 0 232.5 -55t69.5 -177q0 -168 -133 -217l146 -207h94v-43h-255l-155 223h-108v-223h-253v43h97zM465 384q29 26 29 82.5t-30 77.5t-105 21h-117v-207h114q80 0 109 26z" />
<glyph unicode="s" horiz-adv-x="638" d="M638 43v-43h-638v43h136q-55 28 -100 72l93 114q113 -99 209 -99q43 0 67.5 18.5t24.5 50t-26 50t-103 37.5q-122 29 -178.5 75.5t-56.5 146t71.5 153.5t178.5 54q70 0 140 -24t122 -68l-79 -114q-91 69 -188 69q-39 0 -61.5 -18.5t-22.5 -49t27.5 -48.5t127 -42.5 t154.5 -73.5t55 -136q0 -108 -81 -167h128z" />
<glyph unicode="t" horiz-adv-x="608" d="M608 43v-43h-608v43h226v521h-198v135h552v-135h-198v-521h226z" />
<glyph unicode="u" horiz-adv-x="751" d="M751 43v-43h-751v43h199q-123 82 -123 265v391h156v-386q0 -84 39 -132.5t105 -48.5t104.5 48.5t38.5 132.5v386h156v-391q0 -183 -122 -265h198z" />
<glyph unicode="v" horiz-adv-x="688" d="M688 43v-43h-688v43h260l-263 656h169l178 -445l178 445h169l-264 -656h261z" />
<glyph unicode="w" horiz-adv-x="1019" d="M1019 43v-43h-357l-153 486l-152 -486h-357v43h226l-229 656h169l138 -402l124 402h163l123 -402l139 402h169l-229 -656h226z" />
<glyph unicode="x" horiz-adv-x="695" d="M754 43v-43h-259l-149 230l-148 -230h-256v43h96l207 315l-219 341h187l133 -207l133 207h188l-218 -337l208 -319h97z" />
<glyph unicode="y" horiz-adv-x="618" d="M618 43v-43h-618v43h231v233l-242 423h169l151 -260l151 260h169l-242 -423v-233h231z" />
<glyph unicode="z" horiz-adv-x="681" d="M728 43v-43h-779v43h97v64l366 457h-354v135h567v-108l-365 -455h371v-93h97z" />
<glyph unicode="{" horiz-adv-x="360" d="M360 43v-43h-360v43h148q-42 39 -42 106v126q0 54 -49 54h-20v102h20q49 0 49 54v126q0 73 45.5 109.5t119.5 36.5h40v-113q-5 1 -15 1q-50 0 -50 -60v-86q0 -69 -41 -103q-17 -14 -26 -16q24 -8 45 -36q22 -29 22 -83v-86q0 -60 50 -60q10 0 15 1v-73h49z" />
<glyph unicode="|" horiz-adv-x="276" d="M0 0v43h76v734h124v-734h76v-43h-276z" />
<glyph unicode="}" horiz-adv-x="360" d="M0 0v43h49v73q5 -1 15 -1q50 0 50 60v86q0 68 40 103q16 14 26 16q-24 8 -44 36q-22 32 -22 83v86q0 60 -50 60q-10 0 -15 -1v113h40q74 0 119.5 -36.5t45.5 -109.5v-126q0 -54 49 -54h20v-102h-20q-49 0 -49 -54v-126q0 -67 -42 -106h148v-43h-360z" />
<glyph unicode="~" horiz-adv-x="535" d="M0 0v43h236v296q-36 15 -51.5 15t-28.5 -19t-12 -54l-119 36q7 80 47 120.5t103 40.5q36 0 98 -32t84 -32q32 0 32 43q0 14 -2 22l120 -32q-6 -83 -44 -120.5t-95 -37.5q-30 0 -68 18v-264h235v-43h-535z" />
<glyph unicode="&#xa1;" horiz-adv-x="318" d="M318 43v-43h-318v43h70v89l30 360h118l29 -360v-89h71zM247 627q0 -37 -25.5 -62.5t-62.5 -25.5t-62.5 25.5t-25.5 62.5t25.5 62.5t62.5 25.5t62.5 -25.5t25.5 -62.5z" />
<glyph unicode="&#xa2;" horiz-adv-x="598" d="M280 -117v117h-291v43h171q-114 79 -114 225q0 110 67 184t167 90v115h96v-114q102 -15 177 -91l-78 -102q-41 47 -99 60v-279q26 8 49.5 25t34.5 30l10 14l89 -100q-37 -37 -69 -57h108v-43h-222v-117h-96zM217 354.5q-24 -34.5 -24 -85t24 -85.5t63 -49v269 q-39 -15 -63 -49.5z" />
<glyph unicode="&#xa3;" horiz-adv-x="628" d="M668 43v-43h-711v43h105v90h76v140h-80v126h80v103q0 124 63.5 180.5t166.5 56.5q138 0 210 -126l-111 -90q-16 37 -41 58t-55 21t-53 -22.5t-23 -71.5v-109h156v-126h-156v-140h278v-90h95z" />
<glyph unicode="&#xa4;" horiz-adv-x="761" d="M142 193q-46 67 -46 153.5t44 153.5l-84 85l94 95l89 -89q65 35 142 35t141 -36l89 90l94 -95l-84 -86q44 -68 44 -152.5t-47 -153.5l87 -88l-61 -62h163v-43h-850v43h159l-60 62zM380 204q56 0 92 40.5t36 103.5t-36 103t-92 40t-92 -40t-36 -103t36 -103.5t92 -40.5z M519 104q-66 -34 -140.5 -34t-136.5 34l-61 -61h398z" />
<glyph unicode="&#xa5;" horiz-adv-x="741" d="M741 43v-43h-741v43h286v85h-178v96h178v55h-178v96h114l-188 323h170l165 -285l171 285h169l-194 -323h110v-96h-176v-55h176v-96h-176v-85h292z" />
<glyph unicode="&#xa6;" horiz-adv-x="294" d="M294 43v-43h-294v43h80v296h134v-296h80zM80 427v327h134v-327h-134z" />
<glyph unicode="&#xa7;" horiz-adv-x="622" d="M642 43v-43h-103q-9 -67 -68.5 -111.5t-154.5 -44.5q-143 0 -263 109l39 47h-92v43h384q-22 22 -122.5 51.5t-156 72t-55.5 123.5q0 42 24.5 79.5t70.5 57.5q-54 38 -54 103q0 82 61 133.5t156 51.5q66 0 118 -18.5t109 -60.5l-75 -107q-84 64 -154 64q-32 0 -50.5 -15 t-18.5 -40.5t23.5 -41t93.5 -33.5q120 -29 172 -69.5t52 -116.5q0 -101 -102 -143q50 -35 61 -91h105zM183 294q0 -38 48.5 -62.5t123.5 -24.5q38 0 64 16.5t26 43.5q0 41 -59.5 61t-107.5 20q-95 0 -95 -54zM210 0q58 -34 115 -34t69 34h-184z" />
<glyph unicode="&#xa8;" horiz-adv-x="531" d="M95 691q0 31 21.5 52.5t52.5 21.5t52.5 -21.5t21.5 -52.5t-21.5 -52.5t-52.5 -21.5t-52.5 21.5t-21.5 52.5zM288 691q0 31 21.5 52.5t52.5 21.5t52.5 -21.5t21.5 -52.5t-21.5 -52.5t-52.5 -21.5t-52.5 21.5t-21.5 52.5z" />
<glyph unicode="&#xa9;" horiz-adv-x="824" d="M0 0v43h219q-78 49 -123 129.5t-45 175.5q0 149 105.5 256t255.5 107t255.5 -106t105.5 -255q0 -95 -46 -176.5t-124 -130.5h221v-43h-824zM699 350q0 118 -84 202t-202.5 84t-203 -85t-84.5 -203t83 -202t203 -84t204 85t84 203zM416 146q-84 0 -145 57t-61 149 t63 149.5t155 57.5t160 -71l-60 -75q-40 48 -101 48q-43 0 -73.5 -28.5t-30.5 -79t31.5 -80t75.5 -29.5q65 0 100 58l62 -75q-77 -81 -176 -81z" />
<glyph unicode="&#xab;" horiz-adv-x="604" d="M-30 0v43h166l-118 176l122 188h151l-118 -188l114 -176h74l-118 176l122 188h151l-118 -188l114 -176h92v-43h-634z" />
<glyph unicode="&#xac;" horiz-adv-x="817" d="M63 445h669v-357h-112v239h-557v118z" />
<glyph unicode="&#xae;" horiz-adv-x="824" d="M0 0v43h219q-78 49 -123 129.5t-45 175.5q0 149 105.5 256t255.5 107t255.5 -106t105.5 -255q0 -95 -46 -176.5t-124 -130.5h221v-43h-824zM619 151q80 83 80 200t-84 201t-202.5 84t-203 -85t-84.5 -203t83 -202t204 -84t205 87h-116l-87 125h-44v-125h-110v406h161 q96 0 137 -33t41 -106q0 -89 -81 -124zM476 376.5q14 12.5 14 40t-14.5 38t-50.5 10.5h-55v-101h53q39 0 53 12.5z" />
<glyph unicode="&#xaf;" horiz-adv-x="442" d="M388 687v-116h-333v116h333z" />
<glyph unicode="&#xb0;" horiz-adv-x="428" d="M214 714q69 0 118 -48t49 -115.5t-49 -115t-118 -47.5t-118 47.5t-49 115t49 115.5t118 48zM163 493.5q21 -23.5 51 -23.5t50.5 23t20.5 57t-20.5 57t-50.5 23t-51 -23t-21 -56.5t21 -57zM430 43v-43h-430v43h430z" />
<glyph unicode="&#xb1;" horiz-adv-x="581" d="M48 202h211v50h-38v139h-173v117h173v144h138v-144h174v-117h-174v-139h-36v-50h210v-113h-210v-46h258v-43h-581v43h259v46h-211v113z" />
<glyph unicode="&#xb4;" horiz-adv-x="382" d="M193 771h-143l127 177l155 -65z" />
<glyph unicode="&#xb6;" horiz-adv-x="712" d="M712 43v-43h-712v43h260v305h-20q-130 0 -180 96q-26 49 -26 104q0 88 60.5 148t184.5 60h342v-713h91zM390 632v-589h98v589h-98z" />
<glyph unicode="&#xb7;" horiz-adv-x="298" d="M61 318q0 37 25.5 62.5t62.5 25.5t62.5 -25.5t25.5 -62.5t-25.5 -62.5t-62.5 -25.5t-62.5 25.5t-25.5 62.5z" />
<glyph unicode="&#xb8;" horiz-adv-x="281" d="M244 -127q0 -43 -35.5 -75t-89.5 -32t-105 32l38 86q22 -19 39 -19t26.5 9t9.5 22.5t-12 24t-28.5 10.5t-35.5 -9l41 78h115l-28 -51q65 -22 65 -76z" />
<glyph unicode="&#xbb;" horiz-adv-x="604" d="M604 43v-43h-634v43h91l115 176l-118 188h151l122 -188l-119 -176h74l115 176l-118 188h151l122 -188l-119 -176h167z" />
<glyph unicode="&#xbf;" horiz-adv-x="526" d="M0 0v43h130q-78 47 -78 151q0 42 22.5 82.5t49.5 65.5q71 69 71 119v31h152v-49q0 -68 -57 -127q-8 -8 -28 -27t-28 -28q-25 -28 -25 -56.5t15 -44.5t42.5 -16t47 24.5t19.5 55.5q0 6 -1 12h142v-10q0 -126 -97 -183h149v-43h-526zM357 627q0 -37 -25.5 -62.5 t-62.5 -25.5t-62.5 25.5t-25.5 62.5t25.5 62.5t62.5 25.5t62.5 -25.5t25.5 -62.5z" />
<glyph unicode="&#xc0;" d="M847 43v-43h-263l-65 151h-293l-65 -151h-263v43h115l284 656h151l283 -656h116zM448 769h-143l-139 112l154 66zM373 491l-88 -203h175z" />
<glyph unicode="&#xc1;" d="M847 43v-43h-263l-65 151h-293l-65 -151h-263v43h115l284 656h151l283 -656h116zM439 771h-143l127 177l155 -65zM373 491l-88 -203h175z" />
<glyph unicode="&#xc2;" d="M847 43v-43h-263l-65 151h-293l-65 -151h-263v43h115l284 656h151l283 -656h116zM283 769h-123l113 158h187l113 -158h-123l-84 81zM373 491l-88 -203h175z" />
<glyph unicode="&#xc3;" d="M847 43v-43h-263l-65 151h-293l-65 -151h-263v43h115l284 656h151l283 -656h116zM309 821q-31 0 -30 -52h-106q0 75 32.5 118t83.5 43q32 0 77.5 -27.5t55.5 -27.5q31 0 30 52h106q0 -75 -32.5 -118t-83.5 -43q-31 0 -78 27.5t-55 27.5zM373 491l-88 -203h175z" />
<glyph unicode="&#xc4;" d="M847 43v-43h-263l-65 151h-293l-65 -151h-263v43h115l284 656h151l283 -656h116zM373 491l-88 -203h175zM205 847q0 31 21.5 52.5t52.5 21.5t52.5 -21.5t21.5 -52.5t-21.5 -52.5t-52.5 -21.5t-52.5 21.5t-21.5 52.5zM398 847q0 31 21.5 52.5t52.5 21.5t52.5 -21.5 t21.5 -52.5t-21.5 -52.5t-52.5 -21.5t-52.5 21.5t-21.5 52.5z" />
<glyph unicode="&#xc5;" d="M-102 0v43h115l283 655q-30 32 -30 75.5t31.5 75t75.5 31.5t75.5 -31.5t31.5 -75.5t-32 -76l283 -654h116v-43h-263l-65 151h-293l-65 -151h-263zM373 491l-88 -203h175zM338 773q0 -14 10.5 -24.5t24.5 -10.5t24.5 10.5t10.5 24.5t-10.5 24.5t-24.5 10.5t-24.5 -10.5 t-10.5 -24.5z" />
<glyph unicode="&#xc6;" horiz-adv-x="1023" d="M1068 43v-43h-623v151h-198l-79 -151h-270v43h108l337 656h617v-137h-349v-151h313v-131h-313v-143h360v-94h97zM445 292v246l-127 -246h127z" />
<glyph unicode="&#xc7;" horiz-adv-x="732" d="M736 43v-43h-736v43h215q-80 47 -125.5 127.5t-45.5 182.5q0 154 106.5 258t260.5 104q172 0 288 -131l-97 -110q-74 92 -184 92q-88 0 -150.5 -57.5t-62.5 -155t59 -156.5t143 -59q115 0 188 91l100 -103q-44 -51 -99 -83h140zM492 -129q0 -43 -35.5 -75t-89.5 -32 t-105 32l38 86q22 -19 39 -19t26.5 9t9.5 22.5t-12 24t-28.5 10.5t-35.5 -9l41 78h115l-28 -51q65 -22 65 -76z" />
<glyph unicode="&#xc8;" horiz-adv-x="654" d="M86 43v656h504v-139h-348v-144h313v-133h-313v-145h359v-95h97v-43h-709v43h97zM404 769h-143l-139 112l154 66z" />
<glyph unicode="&#xc9;" horiz-adv-x="654" d="M86 43v656h504v-139h-348v-144h313v-133h-313v-145h359v-95h97v-43h-709v43h97zM395 771h-143l127 177l155 -65z" />
<glyph unicode="&#xca;" horiz-adv-x="654" d="M86 43v656h504v-139h-348v-144h313v-133h-313v-145h359v-95h97v-43h-709v43h97zM239 769h-123l113 158h187l113 -158h-123l-84 81z" />
<glyph unicode="&#xcb;" horiz-adv-x="654" d="M86 43v656h504v-139h-348v-144h313v-133h-313v-145h359v-95h97v-43h-709v43h97zM363 847q0 31 21.5 52.5t52.5 21.5t52.5 -21.5t21.5 -52.5t-21.5 -52.5t-52.5 -21.5t-52.5 21.5t-21.5 52.5zM170 847q0 31 21.5 52.5t52.5 21.5t52.5 -21.5t21.5 -52.5t-21.5 -52.5 t-52.5 -21.5t-52.5 21.5t-21.5 52.5z" />
<glyph unicode="&#xcc;" horiz-adv-x="328" d="M328 43v-43h-328v43h86v656h156v-656h86zM245 769h-143l-139 112l154 66z" />
<glyph unicode="&#xcd;" horiz-adv-x="328" d="M328 43v-43h-328v43h86v656h156v-656h86zM236 771h-143l127 177l155 -65z" />
<glyph unicode="&#xce;" horiz-adv-x="328" d="M328 43v-43h-328v43h86v656h156v-656h86zM81 770h-123l113 158h187l113 -158h-123l-84 81z" />
<glyph unicode="&#xcf;" horiz-adv-x="328" d="M328 43v-43h-328v43h86v656h156v-656h86zM186 847q0 31 21.5 52.5t52.5 21.5t52.5 -21.5t21.5 -52.5t-21.5 -52.5t-52.5 -21.5t-52.5 21.5t-21.5 52.5zM-7 847q0 31 21.5 52.5t52.5 21.5t52.5 -21.5t21.5 -52.5t-21.5 -52.5t-52.5 -21.5t-52.5 21.5t-21.5 52.5z" />
<glyph unicode="&#xd0;" horiz-adv-x="784" d="M26 280v133h74v286h247q187 0 287 -91.5t100 -257.5q0 -224 -174 -307h236v-43h-793v43h97v237h-74zM519.5 192q57.5 54 57.5 157t-57.5 158.5t-176.5 55.5h-87v-150h234v-133h-234v-142h99q107 0 164.5 54z" />
<glyph unicode="&#xd1;" horiz-adv-x="817" d="M86 43v656h146l343 -450v450h156v-656h97v-43h-253l-333 438v-438h-253v43h97zM350 820q-31 0 -30 -52h-106q0 75 32.5 118t83.5 43q32 0 77.5 -27.5t55.5 -27.5q31 0 30 52h106q0 -75 -32.5 -118t-83.5 -43q-31 0 -78 27.5t-55 27.5z" />
<glyph unicode="&#xd2;" horiz-adv-x="826" d="M826 43v-43h-826v43h223q-82 47 -129.5 129t-47.5 182q0 154 106 257.5t261 103.5t261 -103.5t106 -257.5q0 -100 -48 -182t-129 -129h223zM561 513q-60 66 -147.5 66t-147.5 -66t-60 -159.5t60 -159t147.5 -65.5t147.5 65.5t60 159t-60 159.5zM494 769h-143l-139 112 l154 66z" />
<glyph unicode="&#xd3;" horiz-adv-x="826" d="M826 43v-43h-826v43h223q-82 47 -129.5 129t-47.5 182q0 154 106 257.5t261 103.5t261 -103.5t106 -257.5q0 -100 -48 -182t-129 -129h223zM561 513q-60 66 -147.5 66t-147.5 -66t-60 -159.5t60 -159t147.5 -65.5t147.5 65.5t60 159t-60 159.5zM485 771h-143l127 177 l155 -65z" />
<glyph unicode="&#xd4;" horiz-adv-x="826" d="M826 43v-43h-826v43h223q-82 47 -129.5 129t-47.5 182q0 154 106 257.5t261 103.5t261 -103.5t106 -257.5q0 -100 -48 -182t-129 -129h223zM561 513q-60 66 -147.5 66t-147.5 -66t-60 -159.5t60 -159t147.5 -65.5t147.5 65.5t60 159t-60 159.5zM329 769h-123l113 158h187 l113 -158h-123l-84 81z" />
<glyph unicode="&#xd5;" horiz-adv-x="826" d="M826 43v-43h-826v43h223q-82 47 -129.5 129t-47.5 182q0 154 106 257.5t261 103.5t261 -103.5t106 -257.5q0 -100 -48 -182t-129 -129h223zM561 513q-60 66 -147.5 66t-147.5 -66t-60 -159.5t60 -159t147.5 -65.5t147.5 65.5t60 159t-60 159.5zM355 820q-31 0 -30 -52 h-106q0 75 32.5 118t83.5 43q32 0 77.5 -27.5t55.5 -27.5q31 0 30 52h106q0 -75 -32.5 -118t-83.5 -43q-31 0 -78 27.5t-55 27.5z" />
<glyph unicode="&#xd6;" horiz-adv-x="826" d="M826 43v-43h-826v43h223q-82 47 -129.5 129t-47.5 182q0 154 106 257.5t261 103.5t261 -103.5t106 -257.5q0 -100 -48 -182t-129 -129h223zM561 513q-60 66 -147.5 66t-147.5 -66t-60 -159.5t60 -159t147.5 -65.5t147.5 65.5t60 159t-60 159.5zM241 847q0 31 21.5 52.5 t52.5 21.5t52.5 -21.5t21.5 -52.5t-21.5 -52.5t-52.5 -21.5t-52.5 21.5t-21.5 52.5zM434 847q0 31 21.5 52.5t52.5 21.5t52.5 -21.5t21.5 -52.5t-21.5 -52.5t-52.5 -21.5t-52.5 21.5t-21.5 52.5z" />
<glyph unicode="&#xd7;" horiz-adv-x="589" d="M589 43v-43h-589v43h271v207l-135 -138l-88 89l160 163l-159 161l88 89l158 -163l159 163l86 -89l-157 -161l158 -163l-86 -89l-137 139v-208h271z" />
<glyph unicode="&#xd8;" horiz-adv-x="826" d="M826 43v-43h-493l-51 -112h-141l51 112h-192v43h211l3 5q-78 48 -123 128.5t-45 177.5q0 154 106 257.5t261 103.5q48 0 100 -13l47 103h142l-72 -157q70 -49 110 -126t40 -172.5t-48 -177t-129 -129.5h223zM413 579q-87 0 -147 -66t-60 -165t70 -164l179 390 q-23 5 -42 5zM561 194.5q60 65.5 60 156.5t-56 157l-172 -378q6 -1 20 -1q88 0 148 65.5z" />
<glyph unicode="&#xd9;" horiz-adv-x="751" d="M751 43v-43h-751v43h199q-123 82 -123 265v391h156v-386q0 -84 39 -132.5t105 -48.5t104.5 48.5t38.5 132.5v386h156v-391q0 -183 -122 -265h198zM455 769h-143l-139 112l154 66z" />
<glyph unicode="&#xda;" horiz-adv-x="751" d="M751 43v-43h-751v43h199q-123 82 -123 265v391h156v-386q0 -84 39 -132.5t105 -48.5t104.5 48.5t38.5 132.5v386h156v-391q0 -183 -122 -265h198zM447 771h-143l127 177l155 -65z" />
<glyph unicode="&#xdb;" horiz-adv-x="751" d="M751 43v-43h-751v43h199q-123 82 -123 265v391h156v-386q0 -84 39 -132.5t105 -48.5t104.5 48.5t38.5 132.5v386h156v-391q0 -183 -122 -265h198zM291 769h-123l113 158h187l113 -158h-123l-84 81z" />
<glyph unicode="&#xdc;" horiz-adv-x="751" d="M751 43v-43h-751v43h199q-123 82 -123 265v391h156v-386q0 -84 39 -132.5t105 -48.5t104.5 48.5t38.5 132.5v386h156v-391q0 -183 -122 -265h198zM397 847q0 31 21.5 52.5t52.5 21.5t52.5 -21.5t21.5 -52.5t-21.5 -52.5t-52.5 -21.5t-52.5 21.5t-21.5 52.5zM204 847 q0 31 21.5 52.5t52.5 21.5t52.5 -21.5t21.5 -52.5t-21.5 -52.5t-52.5 -21.5t-52.5 21.5t-21.5 52.5z" />
<glyph unicode="&#xdd;" horiz-adv-x="618" d="M618 43v-43h-618v43h231v233l-242 423h169l151 -260l151 260h169l-242 -423v-233h231zM361 771h-143l127 177l155 -65z" />
<glyph unicode="&#xde;" horiz-adv-x="685" d="M785 43v-43h-885v43h186v656h156v-84h81q318 0 318 -247q0 -136 -79.5 -196.5t-236.5 -60.5h-83v-68h543zM449 278.5q32 32.5 32 92t-40 84.5t-120 25h-79v-234h95q80 0 112 32.5z" />
<glyph unicode="&#xdf;" horiz-adv-x="647" d="M-38 0v43h108v407q0 98 20 154q8 25 27 56t45 50q60 47 159 47q57 0 101.5 -14.5t70.5 -36t43 -50.5q28 -51 28 -109q0 -93 -77 -156q59 -19 88.5 -68.5t29.5 -110.5q0 -113 -88 -169h130v-43h-685zM378.5 465.5q32.5 30.5 32.5 68t-19 64t-60 26.5q-58 0 -82 -41 t-24 -120v-420h56v83h44q123 0 123 86q0 95 -115 95q-21 0 -55 -3v121q67 10 99.5 40.5z" />
<glyph unicode="&#xe0;" d="M847 43v-43h-263l-65 151h-293l-65 -151h-263v43h115l284 656h151l283 -656h116zM448 769h-143l-139 112l154 66zM373 491l-88 -203h175z" />
<glyph unicode="&#xe1;" d="M847 43v-43h-263l-65 151h-293l-65 -151h-263v43h115l284 656h151l283 -656h116zM439 771h-143l127 177l155 -65zM373 491l-88 -203h175z" />
<glyph unicode="&#xe2;" d="M847 43v-43h-263l-65 151h-293l-65 -151h-263v43h115l284 656h151l283 -656h116zM283 769h-123l113 158h187l113 -158h-123l-84 81zM373 491l-88 -203h175z" />
<glyph unicode="&#xe3;" d="M847 43v-43h-263l-65 151h-293l-65 -151h-263v43h115l284 656h151l283 -656h116zM309 821q-31 0 -30 -52h-106q0 75 32.5 118t83.5 43q32 0 77.5 -27.5t55.5 -27.5q31 0 30 52h106q0 -75 -32.5 -118t-83.5 -43q-31 0 -78 27.5t-55 27.5zM373 491l-88 -203h175z" />
<glyph unicode="&#xe4;" d="M847 43v-43h-263l-65 151h-293l-65 -151h-263v43h115l284 656h151l283 -656h116zM373 491l-88 -203h175zM205 847q0 31 21.5 52.5t52.5 21.5t52.5 -21.5t21.5 -52.5t-21.5 -52.5t-52.5 -21.5t-52.5 21.5t-21.5 52.5zM398 847q0 31 21.5 52.5t52.5 21.5t52.5 -21.5 t21.5 -52.5t-21.5 -52.5t-52.5 -21.5t-52.5 21.5t-21.5 52.5z" />
<glyph unicode="&#xe5;" d="M-102 0v43h115l283 655q-30 32 -30 75.5t31.5 75t75.5 31.5t75.5 -31.5t31.5 -75.5t-32 -76l283 -654h116v-43h-263l-65 151h-293l-65 -151h-263zM373 491l-88 -203h175zM338 773q0 -14 10.5 -24.5t24.5 -10.5t24.5 10.5t10.5 24.5t-10.5 24.5t-24.5 10.5t-24.5 -10.5 t-10.5 -24.5z" />
<glyph unicode="&#xe6;" horiz-adv-x="1023" d="M1068 43v-43h-623v151h-198l-79 -151h-270v43h108l337 656h617v-137h-349v-151h313v-131h-313v-143h360v-94h97zM445 292v246l-127 -246h127z" />
<glyph unicode="&#xe7;" horiz-adv-x="732" d="M736 43v-43h-736v43h215q-80 47 -125.5 127.5t-45.5 182.5q0 154 106.5 258t260.5 104q172 0 288 -131l-97 -110q-74 92 -184 92q-88 0 -150.5 -57.5t-62.5 -155t59 -156.5t143 -59q115 0 188 91l100 -103q-44 -51 -99 -83h140zM492 -129q0 -43 -35.5 -75t-89.5 -32 t-105 32l38 86q22 -19 39 -19t26.5 9t9.5 22.5t-12 24t-28.5 10.5t-35.5 -9l41 78h115l-28 -51q65 -22 65 -76z" />
<glyph unicode="&#xe8;" horiz-adv-x="654" d="M86 43v656h504v-139h-348v-144h313v-133h-313v-145h359v-95h97v-43h-709v43h97zM404 769h-143l-139 112l154 66z" />
<glyph unicode="&#xe9;" horiz-adv-x="654" d="M86 43v656h504v-139h-348v-144h313v-133h-313v-145h359v-95h97v-43h-709v43h97zM395 771h-143l127 177l155 -65z" />
<glyph unicode="&#xea;" horiz-adv-x="654" d="M86 43v656h504v-139h-348v-144h313v-133h-313v-145h359v-95h97v-43h-709v43h97zM239 769h-123l113 158h187l113 -158h-123l-84 81z" />
<glyph unicode="&#xeb;" horiz-adv-x="654" d="M86 43v656h504v-139h-348v-144h313v-133h-313v-145h359v-95h97v-43h-709v43h97zM170 847q0 31 21.5 52.5t52.5 21.5t52.5 -21.5t21.5 -52.5t-21.5 -52.5t-52.5 -21.5t-52.5 21.5t-21.5 52.5zM363 847q0 31 21.5 52.5t52.5 21.5t52.5 -21.5t21.5 -52.5t-21.5 -52.5 t-52.5 -21.5t-52.5 21.5t-21.5 52.5z" />
<glyph unicode="&#xec;" horiz-adv-x="328" d="M328 43v-43h-328v43h86v656h156v-656h86zM245 769h-143l-139 112l154 66z" />
<glyph unicode="&#xed;" horiz-adv-x="328" d="M328 43v-43h-328v43h86v656h156v-656h86zM236 771h-143l127 177l155 -65z" />
<glyph unicode="&#xee;" horiz-adv-x="328" d="M328 43v-43h-328v43h86v656h156v-656h86zM81 770h-123l113 158h187l113 -158h-123l-84 81z" />
<glyph unicode="&#xef;" horiz-adv-x="328" d="M328 43v-43h-328v43h86v656h156v-656h86zM186 847q0 31 21.5 52.5t52.5 21.5t52.5 -21.5t21.5 -52.5t-21.5 -52.5t-52.5 -21.5t-52.5 21.5t-21.5 52.5zM-7 847q0 31 21.5 52.5t52.5 21.5t52.5 -21.5t21.5 -52.5t-21.5 -52.5t-52.5 -21.5t-52.5 21.5t-21.5 52.5z" />
<glyph unicode="&#xf0;" horiz-adv-x="784" d="M26 280v133h74v286h247q187 0 287 -91.5t100 -257.5q0 -224 -174 -307h236v-43h-793v43h97v237h-74zM519.5 192q57.5 54 57.5 157t-57.5 158.5t-176.5 55.5h-87v-150h234v-133h-234v-142h99q107 0 164.5 54z" />
<glyph unicode="&#xf1;" horiz-adv-x="817" d="M86 43v656h146l343 -450v450h156v-656h97v-43h-253l-333 438v-438h-253v43h97zM350 820q-31 0 -30 -52h-106q0 75 32.5 118t83.5 43q32 0 77.5 -27.5t55.5 -27.5q31 0 30 52h106q0 -75 -32.5 -118t-83.5 -43q-31 0 -78 27.5t-55 27.5z" />
<glyph unicode="&#xf2;" horiz-adv-x="826" d="M826 43v-43h-826v43h223q-82 47 -129.5 129t-47.5 182q0 154 106 257.5t261 103.5t261 -103.5t106 -257.5q0 -100 -48 -182t-129 -129h223zM561 513q-60 66 -147.5 66t-147.5 -66t-60 -159.5t60 -159t147.5 -65.5t147.5 65.5t60 159t-60 159.5zM494 769h-143l-139 112 l154 66z" />
<glyph unicode="&#xf3;" horiz-adv-x="826" d="M826 43v-43h-826v43h223q-82 47 -129.5 129t-47.5 182q0 154 106 257.5t261 103.5t261 -103.5t106 -257.5q0 -100 -48 -182t-129 -129h223zM561 513q-60 66 -147.5 66t-147.5 -66t-60 -159.5t60 -159t147.5 -65.5t147.5 65.5t60 159t-60 159.5zM485 771h-143l127 177 l155 -65z" />
<glyph unicode="&#xf4;" horiz-adv-x="826" d="M826 43v-43h-826v43h223q-82 47 -129.5 129t-47.5 182q0 154 106 257.5t261 103.5t261 -103.5t106 -257.5q0 -100 -48 -182t-129 -129h223zM561 513q-60 66 -147.5 66t-147.5 -66t-60 -159.5t60 -159t147.5 -65.5t147.5 65.5t60 159t-60 159.5zM329 769h-123l113 158h187 l113 -158h-123l-84 81z" />
<glyph unicode="&#xf5;" horiz-adv-x="826" d="M826 43v-43h-826v43h223q-82 47 -129.5 129t-47.5 182q0 154 106 257.5t261 103.5t261 -103.5t106 -257.5q0 -100 -48 -182t-129 -129h223zM561 513q-60 66 -147.5 66t-147.5 -66t-60 -159.5t60 -159t147.5 -65.5t147.5 65.5t60 159t-60 159.5zM355 820q-31 0 -30 -52 h-106q0 75 32.5 118t83.5 43q32 0 77.5 -27.5t55.5 -27.5q31 0 30 52h106q0 -75 -32.5 -118t-83.5 -43q-31 0 -78 27.5t-55 27.5z" />
<glyph unicode="&#xf6;" horiz-adv-x="826" d="M826 43v-43h-826v43h223q-82 47 -129.5 129t-47.5 182q0 154 106 257.5t261 103.5t261 -103.5t106 -257.5q0 -100 -48 -182t-129 -129h223zM561 513q-60 66 -147.5 66t-147.5 -66t-60 -159.5t60 -159t147.5 -65.5t147.5 65.5t60 159t-60 159.5zM241 847q0 31 21.5 52.5 t52.5 21.5t52.5 -21.5t21.5 -52.5t-21.5 -52.5t-52.5 -21.5t-52.5 21.5t-21.5 52.5zM434 847q0 31 21.5 52.5t52.5 21.5t52.5 -21.5t21.5 -52.5t-21.5 -52.5t-52.5 -21.5t-52.5 21.5t-21.5 52.5z" />
<glyph unicode="&#xf7;" horiz-adv-x="582" d="M0 0v43h260v34q-26 10 -41.5 32.5t-15.5 50.5t15.5 50.5t41.5 31.5v46h-212v123h212v45q-26 10 -41.5 32.5t-15.5 55t25.5 58t62.5 25.5t62.5 -25.5t25.5 -57.5t-15.5 -54.5t-39.5 -32.5v-46h210v-123h-210v-47q24 -10 39.5 -32t15.5 -49t-15.5 -49.5t-39.5 -32.5v-35 h258v-43h-582z" />
<glyph unicode="&#xf8;" horiz-adv-x="826" d="M826 43v-43h-493l-51 -112h-141l51 112h-192v43h211l3 5q-78 48 -123 128.5t-45 177.5q0 154 106 257.5t261 103.5q48 0 100 -13l47 103h142l-72 -157q70 -49 110 -126t40 -172.5t-48 -177t-129 -129.5h223zM413 579q-87 0 -147 -66t-60 -165t70 -164l179 390 q-23 5 -42 5zM561 194.5q60 65.5 60 156.5t-56 157l-172 -378q6 -1 20 -1q88 0 148 65.5z" />
<glyph unicode="&#xf9;" horiz-adv-x="751" d="M751 43v-43h-751v43h199q-123 82 -123 265v391h156v-386q0 -84 39 -132.5t105 -48.5t104.5 48.5t38.5 132.5v386h156v-391q0 -183 -122 -265h198zM455 769h-143l-139 112l154 66z" />
<glyph unicode="&#xfa;" horiz-adv-x="751" d="M751 43v-43h-751v43h199q-123 82 -123 265v391h156v-386q0 -84 39 -132.5t105 -48.5t104.5 48.5t38.5 132.5v386h156v-391q0 -183 -122 -265h198zM447 771h-143l127 177l155 -65z" />
<glyph unicode="&#xfb;" horiz-adv-x="751" d="M751 43v-43h-751v43h199q-123 82 -123 265v391h156v-386q0 -84 39 -132.5t105 -48.5t104.5 48.5t38.5 132.5v386h156v-391q0 -183 -122 -265h198zM291 769h-123l113 158h187l113 -158h-123l-84 81z" />
<glyph unicode="&#xfc;" horiz-adv-x="751" d="M751 43v-43h-751v43h199q-123 82 -123 265v391h156v-386q0 -84 39 -132.5t105 -48.5t104.5 48.5t38.5 132.5v386h156v-391q0 -183 -122 -265h198zM397 847q0 31 21.5 52.5t52.5 21.5t52.5 -21.5t21.5 -52.5t-21.5 -52.5t-52.5 -21.5t-52.5 21.5t-21.5 52.5zM204 847 q0 31 21.5 52.5t52.5 21.5t52.5 -21.5t21.5 -52.5t-21.5 -52.5t-52.5 -21.5t-52.5 21.5t-21.5 52.5z" />
<glyph unicode="&#xfd;" horiz-adv-x="618" d="M618 43v-43h-618v43h231v233l-242 423h169l151 -260l151 260h169l-242 -423v-233h231zM361 771h-143l127 177l155 -65z" />
<glyph unicode="&#xfe;" horiz-adv-x="685" d="M785 43v-43h-885v43h186v656h156v-84h81q318 0 318 -247q0 -136 -79.5 -196.5t-236.5 -60.5h-83v-68h543zM449 278.5q32 32.5 32 92t-40 84.5t-120 25h-79v-234h95q80 0 112 32.5z" />
<glyph unicode="&#xff;" horiz-adv-x="618" d="M618 43v-43h-618v43h231v233l-242 423h169l151 -260l151 260h169l-242 -423v-233h231zM331 851q0 31 21.5 52.5t52.5 21.5t52.5 -21.5t21.5 -52.5t-21.5 -52.5t-52.5 -21.5t-52.5 21.5t-21.5 52.5zM138 851q0 31 21.5 52.5t52.5 21.5t52.5 -21.5t21.5 -52.5t-21.5 -52.5 t-52.5 -21.5t-52.5 21.5t-21.5 52.5z" />
<glyph unicode="&#x128;" horiz-adv-x="328" d="M328 43v-43h-328v43h86v656h156v-656h86zM106 821q-31 0 -30 -52h-106q0 75 32.5 118t83.5 43q32 0 77.5 -27.5t55.5 -27.5q31 0 30 52h106q0 -75 -32.5 -118t-83.5 -43q-31 0 -78 27.5t-55 27.5z" />
<glyph unicode="&#x129;" horiz-adv-x="328" d="M328 43v-43h-328v43h86v656h156v-656h86zM106 821q-31 0 -30 -52h-106q0 75 32.5 118t83.5 43q32 0 77.5 -27.5t55.5 -27.5q31 0 30 52h106q0 -75 -32.5 -118t-83.5 -43q-31 0 -78 27.5t-55 27.5z" />
<glyph unicode="&#x134;" horiz-adv-x="556" d="M556 43v-43h-556v43h119q-49 22 -93 68l81 115q63 -68 132 -68q33 0 56.5 26t23.5 76v305h-207v134h364v-436q0 -159 -108 -220h188zM214 769h-123l113 158h187l113 -158h-123l-84 81z" />
<glyph unicode="&#x135;" horiz-adv-x="556" d="M556 43v-43h-556v43h119q-49 22 -93 68l81 115q63 -68 132 -68q33 0 56.5 26t23.5 76v305h-207v134h364v-436q0 -159 -108 -220h188zM214 769h-123l113 158h187l113 -158h-123l-84 81z" />
<glyph unicode="&#x141;" horiz-adv-x="584" d="M102 43v158l-74 -23v135l74 24v361h156v-312l205 65v-136l-205 -65v-111h298v-96h97v-43h-653v43h102z" />
<glyph unicode="&#x142;" horiz-adv-x="584" d="M102 43v158l-74 -23v135l74 24v361h156v-312l205 65v-136l-205 -65v-111h298v-96h97v-43h-653v43h102z" />
<glyph unicode="&#x143;" horiz-adv-x="817" d="M86 43v656h146l343 -450v450h156v-656h97v-43h-253l-333 438v-438h-253v43h97zM471 771h-143l127 177l155 -65z" />
<glyph unicode="&#x144;" horiz-adv-x="817" d="M86 43v656h146l343 -450v450h156v-656h97v-43h-253l-333 438v-438h-253v43h97zM471 771h-143l127 177l155 -65z" />
<glyph unicode="&#x152;" horiz-adv-x="1042" d="M1145 43v-43h-1245v43h327q-83 44 -131.5 125t-48.5 181q0 149 102.5 249t253.5 100h575v-138h-348v-144h312v-133h-312v-145h359v-95h156zM271 503.5q-58 -63.5 -58 -154t58 -154.5t142 -64h60v436h-60q-84 0 -142 -63.5z" />
<glyph unicode="&#x153;" horiz-adv-x="1042" d="M1145 43v-43h-1245v43h327q-83 44 -131.5 125t-48.5 181q0 149 102.5 249t253.5 100h575v-138h-348v-144h312v-133h-312v-145h359v-95h156zM271 503.5q-58 -63.5 -58 -154t58 -154.5t142 -64h60v436h-60q-84 0 -142 -63.5z" />
<glyph unicode="&#x154;" horiz-adv-x="727" d="M86 43v656h265q163 0 232.5 -55t69.5 -177q0 -168 -133 -217l146 -207h94v-43h-255l-155 223h-108v-223h-253v43h97zM465 384q29 26 29 82.5t-30 77.5t-105 21h-117v-207h114q80 0 109 26zM347 771h-143l127 177l155 -65z" />
<glyph unicode="&#x155;" horiz-adv-x="727" d="M86 43v656h265q163 0 232.5 -55t69.5 -177q0 -168 -133 -217l146 -207h94v-43h-255l-155 223h-108v-223h-253v43h97zM465 384q29 26 29 82.5t-30 77.5t-105 21h-117v-207h114q80 0 109 26zM347 771h-143l127 177l155 -65z" />
<glyph unicode="&#x156;" horiz-adv-x="727" d="M760 43v-43h-255l-147 211v-266h94l-80 -195h-126l65 195v278h-69v-223h-253v43h97v656h265q163 0 232.5 -55t69.5 -177q0 -168 -133 -217l146 -207h94zM465 384q29 26 29 82.5t-30 77.5t-105 21h-117v-207h114q80 0 109 26z" />
<glyph unicode="&#x157;" horiz-adv-x="727" d="M86 43v656h265q163 0 232.5 -55t69.5 -177q0 -168 -133 -217l146 -207h94v-43h-255l-147 211v-266h94l-80 -195h-126l65 195v278h-69v-223h-253v43h97zM465 384q29 26 29 82.5t-30 77.5t-105 21h-117v-207h114q80 0 109 26z" />
<glyph unicode="&#x158;" horiz-adv-x="727" d="M86 43v656h265q163 0 232.5 -55t69.5 -177q0 -168 -133 -217l146 -207h94v-43h-255l-155 223h-108v-223h-253v43h97zM465 384q29 26 29 82.5t-30 77.5t-105 21h-117v-207h114q80 0 109 26zM130 927h123l83 -81l84 81h123l-113 -158h-187z" />
<glyph unicode="&#x159;" horiz-adv-x="727" d="M86 43v656h265q163 0 232.5 -55t69.5 -177q0 -168 -133 -217l146 -207h94v-43h-255l-155 223h-108v-223h-253v43h97zM465 384q29 26 29 82.5t-30 77.5t-105 21h-117v-207h114q80 0 109 26zM130 927h123l83 -81l84 81h123l-113 -158h-187z" />
<glyph unicode="&#x160;" horiz-adv-x="638" d="M638 43v-43h-638v43h136q-55 28 -100 72l93 114q113 -99 209 -99q43 0 67.5 18.5t24.5 50t-26 50t-103 37.5q-122 29 -178.5 75.5t-56.5 146t71.5 153.5t178.5 54q70 0 140 -24t122 -68l-79 -114q-91 69 -188 69q-39 0 -61.5 -18.5t-22.5 -49t27.5 -48.5t127 -42.5 t154.5 -73.5t55 -136q0 -108 -81 -167h128zM101 927h123l83 -81l84 81h123l-113 -158h-187z" />
<glyph unicode="&#x161;" horiz-adv-x="638" d="M638 43v-43h-638v43h136q-55 28 -100 72l93 114q113 -99 209 -99q43 0 67.5 18.5t24.5 50t-26 50t-103 37.5q-122 29 -178.5 75.5t-56.5 146t71.5 153.5t178.5 54q70 0 140 -24t122 -68l-79 -114q-91 69 -188 69q-39 0 -61.5 -18.5t-22.5 -49t27.5 -48.5t127 -42.5 t154.5 -73.5t55 -136q0 -108 -81 -167h128zM101 927h123l83 -81l84 81h123l-113 -158h-187z" />
<glyph unicode="&#x178;" horiz-adv-x="618" d="M618 43v-43h-618v43h231v233l-242 423h169l151 -260l151 260h169l-242 -423v-233h231zM331 851q0 31 21.5 52.5t52.5 21.5t52.5 -21.5t21.5 -52.5t-21.5 -52.5t-52.5 -21.5t-52.5 21.5t-21.5 52.5zM138 851q0 31 21.5 52.5t52.5 21.5t52.5 -21.5t21.5 -52.5t-21.5 -52.5 t-52.5 -21.5t-52.5 21.5t-21.5 52.5z" />
<glyph unicode="&#x17d;" horiz-adv-x="681" d="M728 43v-43h-779v43h97v64l366 457h-354v135h567v-108l-365 -455h371v-93h97zM127 927h123l83 -81l84 81h123l-113 -158h-187z" />
<glyph unicode="&#x17e;" horiz-adv-x="681" d="M728 43v-43h-779v43h97v64l366 457h-354v135h567v-108l-365 -455h371v-93h97zM127 927h123l83 -81l84 81h123l-113 -158h-187z" />
<glyph unicode="&#x2c6;" horiz-adv-x="483" d="M158 771h-123l113 158h187l113 -158h-123l-84 81z" />
<glyph unicode="&#x2c7;" horiz-adv-x="613" d="M100 918h123l83 -81l84 81h123l-113 -158h-187z" />
<glyph unicode="&#x2d8;" horiz-adv-x="568" d="M284 666q45 0 63 60h121q-7 -82 -57 -128t-127 -46t-127 46t-57 128h121q18 -60 63 -60z" />
<glyph unicode="&#x2d9;" horiz-adv-x="312" d="M55 682q0 42 29.5 71.5t71.5 29.5t71.5 -29.5t29.5 -71.5t-29.5 -71.5t-71.5 -29.5t-71.5 29.5t-29.5 71.5z" />
<glyph unicode="&#x2da;" horiz-adv-x="414" d="M100 703q0 44 31.5 75.5t75.5 31.5t75.5 -31.5t31.5 -75.5t-31.5 -75.5t-75.5 -31.5t-75.5 31.5t-31.5 75.5zM172 703q0 -14 10.5 -24.5t24.5 -10.5t24.5 10.5t10.5 24.5t-10.5 24.5t-24.5 10.5t-24.5 -10.5t-10.5 -24.5z" />
<glyph unicode="&#x2db;" horiz-adv-x="215" d="M125 -129q22 0 41 29l51 -33q-29 -47 -53.5 -63t-61 -16t-60.5 25t-24 56t13 60t27 46l13 17h73q-46 -60 -46 -96q0 -25 27 -25z" />
<glyph unicode="&#x2dc;" horiz-adv-x="585" d="M243 663q-31 0 -30 -52h-106q0 75 32.5 118t83.5 43q32 0 77.5 -27.5t55.5 -27.5q31 0 30 52h106q0 -75 -32.5 -118t-83.5 -43q-31 0 -78 27.5t-55 27.5z" />
<glyph unicode="&#x2dd;" horiz-adv-x="506" d="M149 611h-133l127 177l145 -65zM371 611h-143l137 177l145 -65z" />
<glyph unicode="&#x2013;" horiz-adv-x="543" d="M74 216v96h395v-96h-174v-173h248v-43h-543v43h248v173h-174z" />
<glyph unicode="&#x2014;" horiz-adv-x="697" d="M64 216v96h569v-96h-259v-173h323v-43h-697v43h327v173h-263z" />
<glyph unicode="&#x2018;" horiz-adv-x="282" d="M282 43v-43h-282v43h99v461h-42l60 195h122l-60 -195h-33v-461h136z" />
<glyph unicode="&#x2019;" horiz-adv-x="282" d="M282 43v-43h-282v43h99v461h-42l60 195h122l-60 -195h-33v-461h136z" />
<glyph unicode="&#x201a;" horiz-adv-x="279" d="M279 43v-43h-102l-24 -77h-121l23 77h-68v43h81l23 74h122l-23 -74h89z" />
<glyph unicode="&#x201c;" horiz-adv-x="444" d="M444 43v-43h-444v43h179v461h-122l60 195h122l-56 -180h40l56 180h122l-60 -195h-115v-461h218z" />
<glyph unicode="&#x201d;" horiz-adv-x="444" d="M444 43v-43h-444v43h179v461h-122l60 195h122l-56 -180h40l56 180h122l-60 -195h-115v-461h218z" />
<glyph unicode="&#x201e;" horiz-adv-x="472" d="M472 43v-43h-102l-24 -77h-121l23 77h-71l-24 -77h-121l23 77h-68v43h81l23 74h122l-23 -74h71l23 74h122l-23 -74h89z" />
<glyph unicode="&#x2020;" horiz-adv-x="538" d="M0 0v43h193v330h-158v130h158v196h145v-196h165v-130h-165v-330h200v-43h-538z" />
<glyph unicode="&#x2021;" horiz-adv-x="534" d="M0 0v43h193v136h-102v111h102v83h-155v130h155v196h146v-196h158v-130h-158v-83h99v-111h-99v-136h195v-43h-534z" />
<glyph unicode="&#x2022;" horiz-adv-x="438" d="M0 0v43h195v137q-50 9 -82.5 47.5t-32.5 93t40.5 95t98.5 40.5t98.5 -40.5t40.5 -95t-33 -93.5t-83 -47v-137h196v-43h-438z" />
<glyph unicode="&#x2026;" horiz-adv-x="719" d="M291 43q-20 23 -20 58.5t25.5 61t62.5 25.5t62.5 -25.5t25.5 -60.5t-21 -59h81q-20 23 -20 58.5t25.5 61t62.5 25.5t62.5 -25.5t25.5 -60.5t-21 -59h78v-43h-720v43h76q-20 23 -20 58.5t25.5 61t62.5 25.5t62.5 -25.5t25.5 -60.5t-21 -59h80z" />
<glyph unicode="&#x2030;" horiz-adv-x="1117" d="M1137 43v-43h-1137v43h83l471 655h171l-471 -655h209q-33 38 -33 93t42 96t105.5 41t105.5 -41t42 -96t-32 -93h127q-32 37 -32 92.5t42 96.5t105.5 41t105.5 -41t42 -96t-32 -93h86zM309 441.5q-42 -40.5 -105.5 -40.5t-105.5 41t-42 99.5t42 99.5t105.5 41t105.5 -41 t42 -100t-42 -99.5zM540.5 88q14.5 -17 37 -17t37 17t14.5 44.5t-14.5 45t-37 17.5t-37 -17.5t-14.5 -45t14.5 -44.5zM898.5 88q14.5 -17 37 -17t37 17t14.5 44.5t-14.5 45t-37 17.5t-37 -17.5t-14.5 -45t14.5 -44.5zM171.5 502.5q12.5 -14.5 32 -14.5t32 14.5t12.5 38.5 t-12.5 39t-32 15t-32 -15t-12.5 -39t12.5 -38.5z" />
<glyph unicode="&#x2039;" horiz-adv-x="379" d="M0 0v43h166l-118 176l122 188h151l-118 -188l114 -176h62v-43h-379z" />
<glyph unicode="&#x203a;" horiz-adv-x="379" d="M-40 0v43h98l118 185l-118 184h151l122 -184l-122 -185h170v-43h-419z" />
<glyph unicode="&#x2212;" horiz-adv-x="582" d="M582 43v-43h-582v43h268v245h-220v123h486v-123h-219v-245h267z" />
<glyph unicode="&#x2264;" horiz-adv-x="621" d="M383 43h238v-43h-72v-78h-487v78h-62v43h336v154l-274 129v137l486 229v-147l-321 -148l321 -152v-148l-165 78v-132z" />
<glyph unicode="&#x2265;" horiz-adv-x="621" d="M621 43v-43h-62v-78h-487v78h-72v43h238v131l-165 -77v148l321 152l-321 148v147l486 -229v-137l-274 -130v-153h336z" />
<glyph unicode="&#x25fc;" horiz-adv-x="700" d="M0 700h700v-700h-700v700z" />
</font>
</defs>
</svg>
